<?xml version="1.0" standalone="no"?>
<!DOCTYPE svg PUBLIC "-//W3C//DTD SVG 20010904//EN"
 "http://www.w3.org/TR/2001/REC-SVG-20010904/DTD/svg10.dtd">
<svg version="1.0" xmlns="http://www.w3.org/2000/svg"
 width="512.000000pt" height="512.000000pt" viewBox="0 0 512.000000 512.000000"
 preserveAspectRatio="xMidYMid meet">
<metadata>
Created by potrace 1.11, written by Peter Selinger 2001-2013
</metadata>
<g transform="translate(0.000000,512.000000) scale(0.100000,-0.100000)"
fill="#000000" stroke="none">
<path d="M1865 5105 c-22 -8 -42 -15 -45 -15 -2 0 -301 -297 -665 -659 l-660
-660 -59 -10 c-200 -36 -369 -198 -420 -402 -14 -59 -16 -205 -16 -1475 0
-1534 -2 -1472 56 -1587 54 -106 135 -187 241 -241 98 -49 153 -56 459 -56
270 0 282 1 308 21 30 23 35 72 12 105 -14 18 -32 19 -318 25 -282 5 -307 7
-360 27 -101 40 -179 118 -220 220 l-23 57 0 1430 0 1430 23 57 c41 102 118
179 220 220 l57 23 1845 3 c1015 1 1971 -1 2125 -6 l280 -8 63 -33 c104 -56
169 -147 191 -266 7 -34 11 -191 11 -382 l0 -323 -114 0 c-135 0 -157 -11
-159 -74 -2 -64 23 -76 159 -76 l114 0 0 -565 0 -565 -40 0 c-29 0 -40 4 -40
15 0 19 -14 19 -29 1 -10 -11 -79 -14 -383 -15 l-372 -2 99 98 100 98 -77 3
-76 3 54 51 c101 96 153 247 132 386 -20 130 -122 267 -242 323 -122 57 -255
56 -379 -4 -270 -130 -330 -470 -124 -695 123 -132 342 -170 509 -88 25 13 10
-7 -62 -79 l-95 -96 -75 6 c-99 8 -192 36 -265 80 -69 42 -155 122 -155 145 0
9 16 30 35 48 l36 31 -43 40 -43 40 -27 -26 c-15 -15 -29 -25 -31 -22 -17 19
-39 120 -44 194 -16 266 148 495 408 572 43 13 123 17 386 20 l333 5 20 25
c26 33 25 63 -1 97 l-20 26 -327 0 c-378 0 -419 -6 -557 -74 -187 -93 -321
-252 -377 -450 -32 -115 -31 -279 3 -391 38 -123 90 -208 189 -306 71 -71 103
-94 181 -133 153 -75 154 -76 817 -76 l584 0 -4 -358 c-4 -342 -5 -359 -26
-414 -43 -107 -112 -175 -223 -221 l-54 -22 -1666 -5 c-1767 -5 -1689 -3
-1704 -50 -7 -22 11 -70 33 -86 14 -11 328 -13 1663 -14 1073 0 1665 4 1700
10 144 27 301 146 368 278 64 126 61 48 61 1597 0 1539 2 1470 -58 1593 -37
77 -137 181 -212 221 l-60 32 25 38 c35 52 88 182 110 266 26 99 24 301 -4
407 -68 261 -231 463 -466 580 -148 74 -225 92 -395 92 -145 0 -212 -13 -327
-60 l-61 -25 -49 20 c-116 49 -201 65 -343 65 -147 -1 -234 -18 -353 -71 -148
-65 -299 -191 -382 -318 -21 -33 -40 -62 -42 -64 -2 -3 -99 91 -216 207 -224
222 -264 252 -342 251 -22 0 -58 -6 -80 -14z m706 -741 l594 -594 -85 0 -85 0
-190 191 c-105 105 -203 197 -218 205 -51 27 -107 -7 -107 -64 0 -32 14 -49
147 -184 l147 -148 -792 0 c-436 0 -792 1 -792 3 0 1 178 180 394 396 l395
395 149 -147 c118 -116 155 -147 176 -147 38 0 76 41 76 81 0 28 -19 51 -147
181 -162 162 -214 198 -292 198 -96 0 -114 -16 -601 -504 l-455 -456 -85 0
-85 0 585 586 c322 322 598 592 614 599 16 7 36 10 46 8 9 -2 284 -272 611
-599z m894 580 c33 -9 96 -33 140 -54 185 -90 305 -231 377 -443 27 -81 31
-106 32 -207 1 -161 -32 -272 -122 -412 l-37 -58 -85 0 -84 0 35 38 c125 133
176 272 166 455 -17 335 -273 578 -608 578 -168 1 -305 -57 -430 -181 -48 -49
-87 -99 -110 -142 l-35 -68 -44 45 -45 46 30 57 c39 74 181 218 264 266 76 44
191 84 275 96 76 11 203 3 281 -16z m778 0 c235 -59 434 -243 512 -475 75
-220 43 -454 -88 -651 l-32 -48 -84 0 -83 0 37 41 c55 62 111 152 135 222 30
85 38 247 16 339 -50 213 -229 396 -444 454 -57 15 -242 21 -263 8 -10 -6
-109 82 -109 97 0 5 50 17 140 33 45 8 200 -4 263 -20z m-842 -270 c207 -62
339 -238 339 -453 -1 -186 -141 -370 -323 -425 l-45 -13 -272 272 -271 271 19
52 c57 150 171 259 312 298 64 18 177 17 241 -2z m774 2 c161 -43 288 -170
330 -331 20 -79 19 -156 -4 -235 -26 -90 -63 -151 -128 -210 -82 -75 -162
-111 -280 -126 l-53 -6 40 83 c61 129 82 221 83 369 2 166 -33 314 -99 428
l-25 42 43 0 c24 0 66 -6 93 -14z m-173 -2522 c61 -20 123 -75 156 -138 36
-68 38 -189 5 -251 -29 -55 -99 -118 -156 -140 -67 -25 -179 -17 -238 18 -93
54 -142 139 -143 243 0 197 189 332 376 268z"/>
<path d="M480 3488 c-55 -29 -52 -110 5 -133 59 -25 115 8 115 68 0 55 -68 91
-120 65z"/>
<path d="M825 3475 c-61 -60 2 -152 85 -124 17 6 35 19 40 29 44 82 -60 161
-125 95z"/>
<path d="M1204 3488 c-22 -10 -44 -47 -44 -73 0 -8 11 -26 24 -41 30 -36 86
-39 118 -7 62 63 -17 161 -98 121z"/>
<path d="M1554 3477 c-56 -48 -23 -131 52 -131 28 0 42 7 60 28 27 30 29 44
13 79 -22 49 -83 60 -125 24z"/>
<path d="M1917 3480 c-47 -37 -34 -109 23 -129 55 -19 109 16 110 70 0 64 -81
100 -133 59z"/>
<path d="M2293 3490 c-26 -10 -43 -40 -43 -72 1 -51 57 -85 110 -67 55 20 68
82 25 124 -25 26 -54 30 -92 15z"/>
<path d="M2654 3488 c-22 -10 -44 -47 -44 -73 0 -8 11 -26 24 -41 47 -55 136
-25 138 46 2 59 -62 96 -118 68z"/>
<path d="M3004 3477 c-56 -48 -23 -131 52 -131 28 0 42 7 60 28 27 30 29 44
13 79 -22 49 -83 60 -125 24z"/>
<path d="M3367 3480 c-31 -25 -37 -72 -12 -107 40 -58 144 -23 145 48 0 64
-81 100 -133 59z"/>
<path d="M3743 3490 c-40 -16 -56 -77 -29 -112 31 -42 113 -40 136 2 38 72
-29 141 -107 110z"/>
<path d="M4104 3488 c-22 -10 -44 -47 -44 -73 0 -8 11 -26 24 -41 48 -56 136
-26 138 46 2 59 -62 96 -118 68z"/>
<path d="M4463 3488 c-30 -14 -46 -58 -34 -89 13 -36 38 -53 76 -53 18 0 41 6
50 14 76 63 -2 172 -92 128z"/>
<path d="M4728 3316 c-30 -23 -40 -63 -24 -101 35 -82 160 -43 141 44 -13 60
-74 90 -117 57z"/>
<path d="M324 3230 c-55 -21 -70 -94 -29 -135 43 -44 105 -28 126 33 20 59
-41 123 -97 102z"/>
<path d="M4724 2946 c-56 -48 -25 -139 47 -139 36 0 79 40 79 73 0 32 -21 67
-47 79 -35 16 -49 14 -79 -13z"/>
<path d="M295 2845 c-65 -64 14 -168 95 -125 27 14 41 64 28 100 -19 55 -82
67 -123 25z"/>
<path d="M295 2485 c-30 -30 -32 -73 -5 -107 25 -33 49 -39 89 -22 54 23 63
83 18 132 -27 30 -71 29 -102 -3z"/>
<path d="M314 2138 c-22 -10 -44 -47 -44 -73 0 -29 23 -64 49 -75 82 -33 145
78 77 136 -29 26 -49 29 -82 12z"/>
<path d="M318 1776 c-52 -26 -61 -93 -18 -136 27 -27 63 -25 96 4 69 59 2 172
-78 132z"/>
<path d="M291 1394 c-28 -36 -27 -79 4 -109 41 -42 102 -30 125 25 34 82 -75
153 -129 84z"/>
<path d="M295 1035 c-31 -30 -32 -73 -4 -109 18 -23 28 -27 63 -24 36 3 43 7
59 39 14 29 15 42 7 64 -22 58 -83 73 -125 30z"/>
<path d="M4724 946 c-56 -48 -26 -136 46 -138 37 -1 80 38 80 72 0 32 -21 67
-47 79 -35 16 -49 14 -79 -13z"/>
<path d="M314 688 c-22 -10 -44 -47 -44 -73 0 -51 57 -93 103 -76 58 22 70 97
23 137 -29 26 -49 29 -82 12z"/>
<path d="M4740 597 c-90 -45 -33 -186 60 -147 32 13 56 65 45 99 -13 43 -66
67 -105 48z"/>
<path d="M483 415 c-76 -33 -41 -145 45 -145 36 0 72 38 72 76 0 32 -28 74
-49 74 -5 0 -15 2 -23 5 -7 2 -27 -2 -45 -10z"/>
<path d="M850 417 c-39 -20 -56 -58 -41 -94 22 -54 83 -68 127 -30 68 59 -6
164 -86 124z"/>
<path d="M1215 421 c-55 -23 -66 -89 -21 -128 42 -36 103 -25 125 24 16 35 14
49 -11 77 -26 29 -63 39 -93 27z"/>
<path d="M1574 416 c-52 -23 -62 -91 -18 -125 31 -25 55 -26 93 -6 30 15 41
33 41 69 0 22 -33 66 -50 66 -4 0 -14 2 -22 5 -7 2 -27 -2 -44 -9z"/>
<path d="M1941 419 c-78 -31 -63 -132 21 -145 30 -5 41 -2 62 19 32 32 34 79
6 107 -11 11 -24 20 -29 20 -5 0 -15 2 -23 4 -7 3 -24 0 -37 -5z"/>
<path d="M2299 419 c-42 -16 -62 -76 -36 -110 33 -43 84 -49 123 -16 68 59 -1
158 -87 126z"/>
<path d="M2665 421 c-55 -23 -66 -89 -21 -128 43 -37 105 -24 126 26 25 62
-43 128 -105 102z"/>
<path d="M3025 418 c-53 -28 -62 -93 -19 -127 30 -24 55 -26 87 -9 66 35 62
111 -7 138 -33 12 -36 12 -61 -2z"/>
<path d="M3384 416 c-48 -21 -59 -75 -25 -117 14 -18 29 -24 61 -24 49 0 80
29 80 76 0 28 -30 69 -49 69 -5 0 -15 2 -23 5 -7 2 -27 -2 -44 -9z"/>
<path d="M3754 420 c-45 -18 -67 -77 -41 -111 32 -42 81 -49 121 -18 66 52 -1
160 -80 129z"/>
<path d="M4110 417 c-37 -19 -55 -61 -40 -96 21 -52 82 -65 126 -28 68 59 -6
166 -86 124z"/>
<path d="M4480 423 c-34 -13 -50 -37 -50 -74 0 -79 97 -106 147 -40 40 51 -34
138 -97 114z"/>
</g>
</svg>
